<?xml version="1.0" encoding="UTF-8" standalone="no"?>
<svg
   xmlns:osb="http://www.openswatchbook.org/uri/2009/osb"
   xmlns:dc="http://purl.org/dc/elements/1.1/"
   xmlns:cc="http://creativecommons.org/ns#"
   xmlns:rdf="http://www.w3.org/1999/02/22-rdf-syntax-ns#"
   xmlns:svg="http://www.w3.org/2000/svg"
   xmlns="http://www.w3.org/2000/svg"
   xmlns:sodipodi="http://sodipodi.sourceforge.net/DTD/sodipodi-0.dtd"
   xmlns:inkscape="http://www.inkscape.org/namespaces/inkscape"
   viewBox="0.0 0.0 348.0 348.0"
   fill="none"
   version="1.1"
   id="svg6"
   sodipodi:docname="UnfairsCruelRevenge.svg"
   inkscape:version="0.92.4 (5da689c313, 2019-01-14)">
  <title
     id="title970">Unfair's Cruel Revenge SVG</title>
  <metadata
     id="metadata12">
    <rdf:RDF>
      <cc:Work
         rdf:about="">
        <dc:format>image/svg+xml</dc:format>
        <dc:type
           rdf:resource="http://purl.org/dc/dcmitype/StillImage" />
        <dc:title>Unfair's Cruel Revenge SVG</dc:title>
      </cc:Work>
    </rdf:RDF>
  </metadata>
  <defs
     id="defs10">
    <linearGradient
       id="linearGradient2432"
       osb:paint="solid">
      <stop
         style="stop-color:#ff0000;stop-opacity:1;"
         offset="0"
         id="stop2430" />
    </linearGradient>
  </defs>
  <sodipodi:namedview
     pagecolor="#ffffff"
     bordercolor="#666666"
     borderopacity="1"
     objecttolerance="10"
     gridtolerance="10"
     guidetolerance="10"
     inkscape:pageopacity="0"
     inkscape:pageshadow="2"
     inkscape:window-width="1920"
     inkscape:window-height="1057"
     id="namedview8"
     showgrid="false"
     inkscape:pagecheckerboard="false"
     inkscape:snap-bbox="true"
     inkscape:snap-bbox-midpoints="true"
     inkscape:snap-object-midpoints="true"
     inkscape:showpageshadow="false"
     inkscape:snap-grids="true"
     inkscape:snap-page="true"
     inkscape:zoom="2.8773526"
     inkscape:cx="139.30159"
     inkscape:cy="189.86697"
     inkscape:window-x="1272"
     inkscape:window-y="-8"
     inkscape:window-maximized="1"
     inkscape:current-layer="svg6">
    <inkscape:grid
       type="xygrid"
       id="grid867"
       units="px"
       dotted="false" />
  </sodipodi:namedview>
  <path
     d="M5.079 5.776h336.913v337.67H5.08z"
     stroke-width="2"
     stroke="#000"
     id="path2"
     style="stroke:#7f0000;stroke-opacity:1;stroke-width:3.33333333;stroke-miterlimit:4;stroke-dasharray:none;fill-opacity:1;fill:none;fill-rule:evenodd" />
  <path
     d="m 297.28518,33.733133 c 0,-8.376 6.966,-15.165 15.56,-15.165 4.126,0 8.084,1.597 11.001,4.441 2.918,2.844 4.558,6.702 4.558,10.724 0,8.376 -6.966,15.165 -15.56,15.165 -8.593,0 -15.559,-6.79 -15.559,-15.165 z"
     id="path4"
     inkscape:connector-curvature="0"
     style="stroke:#7f0000;stroke-width:2;fill:#555555;stroke-opacity:1;fill-opacity:0.33333334" />
  <circle
     style="fill:#585858;fill-opacity:1;fill-rule:nonzero;stroke:#000000;stroke-width:2.41070771;stroke-linecap:square;stroke-linejoin:miter;stroke-miterlimit:4;stroke-dasharray:none;stroke-dashoffset:0;stroke-opacity:1"
     id="path822"
     cy="219.66736"
     cx="129.8963"
     r="117.56828" />
  <path
     id="path828"
     style="fill:#00ff00;fill-opacity:1;fill-rule:nonzero;stroke:#000000;stroke-width:2.76968551;stroke-linecap:square;stroke-linejoin:miter;stroke-miterlimit:4;stroke-dasharray:none;stroke-dashoffset:0;stroke-opacity:1"
     sodipodi:type="arc"
     sodipodi:cx="129.62225"
     sodipodi:cy="220.74318"
     sodipodi:rx="100.75549"
     sodipodi:ry="100.75549"
     sodipodi:start="1.0471976"
     sodipodi:end="2.0943951"
     d="M 180,308 A 100.75549,100.75549 0 0 1 79.244507,308 L 129.62225,220.74318 Z" />
  <path
     d="M 79.244507,308 A 100.75549,100.75549 0 0 1 28.86676,220.74317 l 100.75549,1e-5 z"
     sodipodi:end="3.1415927"
     sodipodi:start="2.0943951"
     sodipodi:ry="100.75549"
     sodipodi:rx="100.75549"
     sodipodi:cy="220.74318"
     sodipodi:cx="129.62225"
     sodipodi:type="arc"
     style="fill:#00ffff;fill-opacity:1;fill-rule:nonzero;stroke:#000000;stroke-width:2.76968551;stroke-linecap:square;stroke-linejoin:miter;stroke-miterlimit:4;stroke-dasharray:none;stroke-dashoffset:0;stroke-opacity:1"
     id="path832" />
  <path
     id="path834"
     style="fill:#ffff00;fill-opacity:1;fill-rule:nonzero;stroke:#000000;stroke-width:2.76968551;stroke-linecap:square;stroke-linejoin:miter;stroke-miterlimit:4;stroke-dasharray:none;stroke-dashoffset:0;stroke-opacity:1"
     sodipodi:type="arc"
     sodipodi:cx="129.62225"
     sodipodi:cy="220.74318"
     sodipodi:rx="100.75549"
     sodipodi:ry="100.75549"
     sodipodi:start="3.1415927"
     sodipodi:end="4.1887902"
     d="m 28.86676,220.74317 a 100.75549,100.75549 0 0 1 50.377746,-87.25681 l 50.377744,87.25682 z" />
  <path
     d="m -79.244511,-133.48636 a 100.75549,100.75549 0 0 1 -100.755489,0 l 50.37775,-87.25682 z"
     sodipodi:end="2.0943951"
     sodipodi:start="1.0471976"
     sodipodi:ry="100.75549"
     sodipodi:rx="100.75549"
     sodipodi:cy="-220.74318"
     sodipodi:cx="-129.62225"
     sodipodi:type="arc"
     style="fill:#ff0200;fill-opacity:1;fill-rule:nonzero;stroke:#000000;stroke-width:2.76968551;stroke-linecap:square;stroke-linejoin:miter;stroke-miterlimit:4;stroke-dasharray:none;stroke-dashoffset:0;stroke-opacity:1"
     id="path836"
     transform="scale(-1)" />
  <path
     id="path838"
     style="fill:#ff00ff;fill-opacity:1;fill-rule:nonzero;stroke:#000000;stroke-width:2.76968551;stroke-linecap:square;stroke-linejoin:miter;stroke-miterlimit:4;stroke-dasharray:none;stroke-dashoffset:0;stroke-opacity:1"
     sodipodi:type="arc"
     sodipodi:cx="-129.62225"
     sodipodi:cy="-220.74318"
     sodipodi:rx="100.75549"
     sodipodi:ry="100.75549"
     sodipodi:start="2.0943951"
     sodipodi:end="3.1415927"
     d="m -180,-133.48636 a 100.75549,100.75549 0 0 1 -50.37775,-87.25682 l 100.7555,0 z"
     transform="scale(-1)" />
  <path
     d="M -230.37775,-220.74318 A 100.75549,100.75549 0 0 1 -180,-308 l 50.37775,87.25682 z"
     sodipodi:end="4.1887902"
     sodipodi:start="3.1415927"
     sodipodi:ry="100.75549"
     sodipodi:rx="100.75549"
     sodipodi:cy="-220.74318"
     sodipodi:cx="-129.62225"
     sodipodi:type="arc"
     style="fill:#0000ff;fill-opacity:1;fill-rule:nonzero;stroke:#000000;stroke-width:2.76968551;stroke-linecap:square;stroke-linejoin:miter;stroke-miterlimit:4;stroke-dasharray:none;stroke-dashoffset:0;stroke-opacity:1"
     id="path840"
     transform="scale(-1)" />
  <circle
     style="fill:#ffffff;fill-opacity:1;fill-rule:nonzero;stroke:#000000;stroke-width:2.41070771;stroke-linecap:square;stroke-linejoin:miter;stroke-miterlimit:4;stroke-dasharray:none;stroke-dashoffset:0;stroke-opacity:1"
     id="path842"
     cx="129.62225"
     cy="220.74318"
     r="52.069874" />
  <text
     xml:space="preserve"
     style="font-style:normal;font-weight:normal;font-size:32px;line-height:1.25;font-family:sans-serif;text-align:center;letter-spacing:0px;word-spacing:0px;text-anchor:middle;fill:#000000;fill-opacity:1;stroke:none"
     x="141.84229"
     y="94.718468"
     id="text849"><tspan
       sodipodi:role="line"
       id="tspan847"
       x="141.84229"
       y="123.91304" /></text>
  <circle
     style="fill:#000000;fill-opacity:1;fill-rule:nonzero;stroke:#666666;stroke-width:1.33333333;stroke-linecap:square;stroke-linejoin:miter;stroke-miterlimit:4;stroke-dasharray:none;stroke-dashoffset:0;stroke-opacity:1"
     id="path853"
     cx="145"
     cy="88"
     r="7.9576783" />
  <path
     style="fill:#000011;fill-opacity:1;fill-rule:nonzero;stroke:#7f0000;stroke-width:1.95565867;stroke-linecap:square;stroke-linejoin:miter;stroke-miterlimit:4;stroke-dasharray:none;stroke-dashoffset:0;stroke-opacity:1"
     d="M 10.123423,16.276397 V 55.386441 L 29.678445,74.941464 H 274.11622 V 35.831419 L 254.5612,16.276397 Z"
     id="path865"
     inkscape:connector-curvature="0"
     sodipodi:nodetypes="ccccccc" />
  <path
     sodipodi:nodetypes="ccccccc"
     inkscape:connector-curvature="0"
     id="path2495"
     d="m 274.1413,74.966543 h 38.90944 L 332.50545,94.42126 V 337.6052 H 293.59602 L 274.1413,318.15047 Z"
     style="fill:#000011;fill-opacity:1;fill-rule:nonzero;stroke:#7f0000;stroke-width:1.94562721;stroke-linecap:square;stroke-linejoin:miter;stroke-miterlimit:4;stroke-dasharray:none;stroke-dashoffset:0;stroke-opacity:1" />
  <g
     aria-label="&lt;display text&gt;"
     style="font-style:normal;font-weight:normal;font-size:32px;line-height:1.25;font-family:sans-serif;text-align:center;letter-spacing:0px;word-spacing:0px;writing-mode:vertical-lr;text-anchor:middle;fill:#ffffff;fill-opacity:1;stroke:none"
     id="text874">
    <path
       d="m 295.589,108.73119 8.01562,-18.031254 h 1.9375 l 8.01563,18.031254 h -2.8125 l -6.17188,-14.218754 -6.17187,14.218754 z"
       style=""
       id="path2497" />
    <path
       d="m 294.38587,129.96556 v -2.9375 h 1.82813 q -1.09375,-1.26562 -1.70313,-2.64062 -0.60937,-1.375 -0.60937,-2.98438 0,-3.125 2.40625,-4.96875 2.40625,-1.82812 6.67187,-1.82812 2.21875,0 3.95313,0.625 1.73437,0.64062 2.95312,1.71875 1.1875,1.0625 1.8125,2.46875 0.625,1.42187 0.625,2.9375 0,1.375 -0.29687,2.4375 -0.28125,1.0625 -0.89063,2.23437 h 7.5625 v 2.9375 z m 4.29688,-2.9375 h 10.01562 q 0.53125,-1.1875 0.73438,-2.125 0.20312,-0.9375 0.20312,-2.04687 0,-2.46875 -1.71875,-3.84375 -1.71875,-1.375 -4.875,-1.375 -3.10937,0 -4.73437,1.0625 -1.60938,1.0625 -1.60938,3.40625 0,1.25 0.54688,2.53125 0.5625,1.28125 1.4375,2.39062 z"
       style=""
       id="path2499" />
    <path
       d="m 314.76087,138.90306 v -3.3125 h 3.04688 v 3.3125 z m -20.375,-0.1875 v -2.9375 H 311.839 v 2.9375 z"
       style=""
       id="path2501" />
    <path
       d="m 299.41712,156.99681 q -2.39062,0 -3.92187,-1.98437 -1.53125,-1.96875 -1.53125,-5.39063 0,-1.9375 0.45312,-3.5625 0.46875,-1.60937 1.01563,-2.70312 h 3.29687 v 0.15625 q -1.04687,1.39062 -1.67187,3.09375 -0.60938,1.70312 -0.60938,3.26562 0,1.9375 0.625,3.03125 0.625,1.09375 1.96875,1.09375 1.03125,0 1.5625,-0.59375 0.53125,-0.59375 0.90625,-2.28125 0.14063,-0.625 0.32813,-1.64062 0.1875,-1 0.40625,-1.82813 0.60937,-2.29687 1.78125,-3.26562 1.1875,-0.95313 2.90625,-0.95313 1.07812,0 2.03125,0.4375 0.95312,0.45313 1.70312,1.35938 0.73438,0.875 1.15625,2.21875 0.4375,1.35937 0.4375,3.03125 0,1.5625 -0.39062,3.15625 -0.375,1.60937 -0.92188,2.67187 h -3.14062 v -0.15625 q 0.82812,-1.125 1.39062,-2.73437 0.57813,-1.60938 0.57813,-3.15625 0,-1.60938 -0.625,-2.71875 -0.60938,-1.10938 -1.82813,-1.10938 -1.07812,0 -1.625,0.67188 -0.54687,0.65625 -0.89062,2.125 -0.1875,0.8125 -0.375,1.8125 -0.1875,1.01562 -0.34375,1.6875 -0.46875,2.04687 -1.60938,3.15625 -1.15625,1.10937 -3.0625,1.10937 z"
       style=""
       id="path2503" />
    <path
       d="m 303.32337,176.55931 q -2.125,0 -3.89062,-0.60937 -1.75,-0.60938 -2.96875,-1.71875 -1.15625,-1.03125 -1.79688,-2.4375 -0.625,-1.39063 -0.625,-2.95313 0,-1.35937 0.29688,-2.46875 0.29687,-1.09375 0.92187,-2.23437 h -7.3125 v -2.9375 H 311.839 v 2.9375 h -1.82813 q 0.98438,1.17187 1.64063,2.625 0.67187,1.46875 0.67187,3.125 0,3.15625 -2.39062,4.90625 -2.375,1.76562 -6.60938,1.76562 z m -0.0781,-3.03125 q 3.15625,0 4.71875,-1.07812 1.5625,-1.07813 1.5625,-3.3125 0,-1.26563 -0.54688,-2.54688 -0.54687,-1.28125 -1.4375,-2.45312 h -9.89062 q -0.5625,1.25 -0.76563,2.14062 -0.20312,0.90625 -0.20312,2.04688 0,2.45312 1.65625,3.82812 1.65625,1.375 4.90625,1.375 z"
       style=""
       id="path2505" />
    <path
       d="m 294.38587,184.10619 v -2.9375 h 24.3125 v 2.9375 z"
       style=""
       id="path2507" />
    <path
       d="m 294.38587,203.48119 v -2.92188 h 1.85938 q -0.26563,-0.39062 -0.75,-1.0625 -0.46875,-0.65625 -0.75,-1.28125 -0.35938,-0.73437 -0.59375,-1.6875 -0.25,-0.95312 -0.25,-2.23437 0,-2.35938 1.5625,-4 1.5625,-1.64063 3.98437,-1.64063 1.98438,0 3.20313,0.84375 1.23437,0.85938 1.9375,2.4375 0.70312,1.59375 0.95312,3.82813 0.25,2.23437 0.375,4.79687 h 0.45313 q 1,0 1.65625,-0.35937 0.65625,-0.34375 1.03125,-1 0.35937,-0.625 0.48437,-1.5 0.125,-0.875 0.125,-1.82813 0,-1.15625 -0.3125,-2.57812 -0.29687,-1.42188 -0.875,-2.9375 v -0.15625 h 2.98438 q 0.23437,0.85937 0.51562,2.48437 0.28125,1.625 0.28125,3.20313 0,1.84375 -0.3125,3.20312 -0.29687,1.375 -1.03125,2.375 -0.71875,0.98438 -1.85937,1.5 -1.14063,0.51563 -2.82813,0.51563 z m 4.29688,-2.92188 h 4.85937 q -0.0781,-1.34375 -0.23437,-3.17187 -0.15625,-1.8125 -0.45313,-2.875 -0.35937,-1.26563 -1.125,-2.04688 -0.75,-0.78125 -2.07812,-0.78125 -1.5,0 -2.26563,0.90625 -0.75,0.90625 -0.75,2.76563 0,1.54687 0.59375,2.82812 0.60938,1.28125 1.45313,2.375 z"
       style=""
       id="path2509" />
    <path
       d="m 311.839,224.23119 -23.89063,-10.1875 v -3.14063 l 7.28125,3.25 16.60938,-6.95312 v 3.1875 l -12.9375,5.35937 12.9375,5.40625 z"
       style=""
       id="path2511" />
    <path
       d="m 294.54212,248.38744 q -0.21875,-0.82813 -0.35937,-1.8125 -0.14063,-0.96875 -0.14063,-1.73438 0,-2.67187 1.4375,-4.0625 1.4375,-1.39062 4.60938,-1.39062 h 9.28125 v -1.98438 h 2.46875 v 1.98438 h 5.01562 v 2.9375 H 311.839 v 6.0625 h -2.46875 v -6.0625 h -7.95313 q -1.375,0 -2.15625,0.0625 -0.76562,0.0625 -1.4375,0.4375 -0.625,0.34375 -0.92187,0.9375 -0.28125,0.60937 -0.28125,1.84375 0,0.71875 0.20312,1.5 0.21875,0.78125 0.35938,1.125 v 0.15625 z"
       style=""
       id="path2513" />
    <path
       d="m 302.80775,266.54369 v -12.85938 q -1.60938,0 -2.8125,0.48438 -1.1875,0.48437 -1.95313,1.32812 -0.75,0.8125 -1.125,1.92188 -0.375,1.125 -0.375,2.46875 0,1.78125 0.70313,3.57812 0.71875,1.8125 1.40625,2.57813 v 0.15625 h -3.20313 q -0.625,-1.48438 -1.04687,-3.03125 -0.42188,-1.54688 -0.42188,-3.25 0,-4.34375 2.34375,-6.78125 2.35938,-2.4375 6.6875,-2.4375 4.28125,0 6.79688,2.32812 2.51562,2.34375 2.51562,6.15625 0,3.53125 -2.0625,5.4375 -2.0625,1.92188 -5.85937,1.92188 z m 2.25,-2.85938 q 2.3125,-0.0156 3.57812,-1.17187 1.26563,-1.14063 1.26563,-3.48438 0,-2.35937 -1.39063,-3.76562 -1.39062,-1.39063 -3.45312,-1.57813 z"
       style=""
       id="path2515" />
    <path
       d="m 294.38587,286.10619 v -3.70313 l 6.70313,-4.95312 -6.70313,-4.98438 v -3.42187 l 8.70313,6.8125 8.75,-6.75 v 3.70312 l -6.59375,4.92188 6.59375,4.9375 v 3.4375 l -8.59375,-6.85938 z"
       style=""
       id="path2517" />
    <path
       d="m 294.54212,298.99681 q -0.21875,-0.82812 -0.35937,-1.8125 -0.14063,-0.96875 -0.14063,-1.73437 0,-2.67188 1.4375,-4.0625 1.4375,-1.39063 4.60938,-1.39063 h 9.28125 v -1.98437 h 2.46875 v 1.98437 h 5.01562 v 2.9375 H 311.839 v 6.0625 h -2.46875 v -6.0625 h -7.95313 q -1.375,0 -2.15625,0.0625 -0.76562,0.0625 -1.4375,0.4375 -0.625,0.34375 -0.92187,0.9375 -0.28125,0.60938 -0.28125,1.84375 0,0.71875 0.20312,1.5 0.21875,0.78125 0.35938,1.125 v 0.15625 z"
       style=""
       id="path2519" />
    <path
       d="M 303.60462,321.87181 295.589,303.84056 h 2.8125 l 6.17187,14.21875 6.17188,-14.21875 h 2.8125 l -8.01563,18.03125 z"
       style=""
       id="path2521" />
  </g>
  <g
     transform="matrix(1.3689805,0,0,1.3689805,366.99102,-231.8717)"
     id="layer1"
     inkscape:label="Layer 1"
     style="stroke:#ffffff;stroke-opacity:1">
    <path
       inkscape:connector-curvature="0"
       id="path1032"
       d="m -231.48719,217.84972 h 12.7 v -12.7 h -12.7"
       style="fill:none;fill-opacity:1;fill-rule:nonzero;stroke:#ffffff;stroke-width:0.70555556;stroke-linecap:square;stroke-linejoin:miter;stroke-miterlimit:4;stroke-dasharray:none;stroke-dashoffset:0;stroke-opacity:1" />
    <path
       style="fill:none;fill-opacity:1;fill-rule:nonzero;stroke:#ffffff;stroke-width:0.70555556;stroke-linecap:square;stroke-linejoin:miter;stroke-miterlimit:4;stroke-dasharray:none;stroke-dashoffset:0;stroke-opacity:1"
       d="m -214.55386,205.14972 v 12.7 h 12.7 v -12.7"
       id="path1034"
       inkscape:connector-curvature="0" />
    <path
       inkscape:connector-curvature="0"
       id="path1036"
       d="m -184.92053,217.84972 v -12.7 h -12.7 v 12.7"
       style="fill:none;fill-opacity:1;fill-rule:nonzero;stroke:#ffffff;stroke-width:0.70555556;stroke-linecap:square;stroke-linejoin:miter;stroke-miterlimit:4;stroke-dasharray:none;stroke-dashoffset:0;stroke-opacity:1" />
    <path
       style="fill:none;fill-opacity:1;fill-rule:nonzero;stroke:#ffffff;stroke-width:0.70555556;stroke-linecap:square;stroke-linejoin:miter;stroke-miterlimit:4;stroke-dasharray:none;stroke-dashoffset:0;stroke-opacity:1"
       d="m -167.98719,205.14972 h -12.7 v 12.7 h 12.7"
       id="path1038"
       inkscape:connector-curvature="0" />
    <path
       style="fill:none;fill-opacity:1;fill-rule:nonzero;stroke:#ffffff;stroke-width:0.70555556;stroke-linecap:square;stroke-linejoin:miter;stroke-miterlimit:4;stroke-dasharray:none;stroke-dashoffset:0;stroke-opacity:1"
       d="m -231.48719,200.91639 h 12.7 v -12.7 h -12.7 z"
       id="path1040"
       inkscape:connector-curvature="0" />
    <path
       inkscape:connector-curvature="0"
       id="path1042"
       d="m -214.55386,200.91639 6.35,-12.7 6.35,12.7"
       style="fill:none;fill-opacity:1;fill-rule:nonzero;stroke:#ffffff;stroke-width:0.70555556;stroke-linecap:square;stroke-linejoin:miter;stroke-miterlimit:4;stroke-dasharray:none;stroke-dashoffset:0;stroke-opacity:1" />
    <path
       style="fill:none;fill-opacity:1;fill-rule:nonzero;stroke:#ffffff;stroke-width:0.70555556;stroke-linecap:square;stroke-linejoin:miter;stroke-miterlimit:4;stroke-dasharray:none;stroke-dashoffset:0;stroke-opacity:1"
       d="m -197.62053,188.21639 12.7,6.35 -12.7,6.35"
       id="path1044"
       inkscape:connector-curvature="0" />
    <path
       inkscape:connector-curvature="0"
       id="path1046"
       d="m -167.98719,188.21639 -6.35,12.7 -6.35,-12.7"
       style="fill:none;fill-opacity:1;fill-rule:nonzero;stroke:#ffffff;stroke-width:0.70555556;stroke-linecap:square;stroke-linejoin:miter;stroke-miterlimit:4;stroke-dasharray:none;stroke-dashoffset:0;stroke-opacity:1" />
    <path
       style="fill:none;fill-opacity:1;fill-rule:nonzero;stroke:#ffffff;stroke-width:0.70555556;stroke-linecap:square;stroke-linejoin:miter;stroke-miterlimit:4;stroke-dasharray:none;stroke-dashoffset:0;stroke-opacity:1"
       d="m -163.75386,217.84972 h 12.7 v -12.7 h -12.7"
       id="path1058"
       inkscape:connector-curvature="0" />
    <path
       inkscape:connector-curvature="0"
       id="path1060"
       d="m -146.82053,205.14972 v 12.7 h 12.7 v -12.7"
       style="fill:none;fill-opacity:1;fill-rule:nonzero;stroke:#ffffff;stroke-width:0.70555556;stroke-linecap:square;stroke-linejoin:miter;stroke-miterlimit:4;stroke-dasharray:none;stroke-dashoffset:0;stroke-opacity:1" />
    <path
       style="fill:none;fill-opacity:1;fill-rule:nonzero;stroke:#ffffff;stroke-width:0.70555556;stroke-linecap:square;stroke-linejoin:miter;stroke-miterlimit:4;stroke-dasharray:none;stroke-dashoffset:0;stroke-opacity:1"
       d="m -117.18719,217.84972 v -12.7 h -12.7 v 12.7"
       id="path1062"
       inkscape:connector-curvature="0" />
    <path
       inkscape:connector-curvature="0"
       id="path1064"
       d="m -100.25386,205.14972 h -12.7 v 12.7 h 12.7"
       style="fill:none;fill-opacity:1;fill-rule:nonzero;stroke:#ffffff;stroke-width:0.70555556;stroke-linecap:square;stroke-linejoin:miter;stroke-miterlimit:4;stroke-dasharray:none;stroke-dashoffset:0;stroke-opacity:1" />
    <path
       inkscape:connector-curvature="0"
       id="path1066"
       d="m -163.75386,200.91639 h 12.7 v -12.7 h -12.7 z"
       style="fill:none;fill-opacity:1;fill-rule:nonzero;stroke:#ffffff;stroke-width:0.70555556;stroke-linecap:square;stroke-linejoin:miter;stroke-miterlimit:4;stroke-dasharray:none;stroke-dashoffset:0;stroke-opacity:1" />
    <path
       style="fill:none;fill-opacity:1;fill-rule:nonzero;stroke:#ffffff;stroke-width:0.70599997;stroke-linecap:square;stroke-linejoin:miter;stroke-miterlimit:4;stroke-dasharray:none;stroke-dashoffset:0;stroke-opacity:1"
       d="m -146.82053,200.91639 6.35,-12.7 6.35,12.7"
       id="path1068"
       inkscape:connector-curvature="0" />
    <path
       inkscape:connector-curvature="0"
       id="path1070"
       d="m -129.88719,188.21639 12.7,6.35 -12.7,6.35"
       style="fill:none;fill-opacity:1;fill-rule:nonzero;stroke:#ffffff;stroke-width:0.70555556;stroke-linecap:square;stroke-linejoin:miter;stroke-miterlimit:4;stroke-dasharray:none;stroke-dashoffset:0;stroke-opacity:1" />
    <path
       style="fill:none;fill-opacity:1;fill-rule:nonzero;stroke:#ffffff;stroke-width:0.70555556;stroke-linecap:square;stroke-linejoin:miter;stroke-miterlimit:4;stroke-dasharray:none;stroke-dashoffset:0;stroke-opacity:1"
       d="m -100.25386,188.21639 -6.35,12.7 -6.35,-12.7"
       id="path1072"
       inkscape:connector-curvature="0" />
    <circle
       r="2.1166666"
       cy="194.56639"
       cx="-157.40387"
       id="path1076"
       style="fill:#ffffff;fill-opacity:1;fill-rule:nonzero;stroke:#ffffff;stroke-width:0.70555556;stroke-linecap:square;stroke-linejoin:miter;stroke-miterlimit:4;stroke-dasharray:none;stroke-dashoffset:0;stroke-opacity:1" />
    <circle
       style="fill:#000000;fill-opacity:1;fill-rule:nonzero;stroke:#ffffff;stroke-width:0.70555556;stroke-linecap:square;stroke-linejoin:miter;stroke-miterlimit:4;stroke-dasharray:none;stroke-dashoffset:0;stroke-opacity:1"
       id="circle1078"
       cx="-157.40385"
       cy="211.49974"
       r="2.1166666" />
    <circle
       r="2.1166666"
       cy="211.49974"
       cx="-157.40385"
       id="circle1080"
       style="fill:#ffffff;fill-opacity:1;fill-rule:nonzero;stroke:#ffffff;stroke-width:0.70555556;stroke-linecap:square;stroke-linejoin:miter;stroke-miterlimit:4;stroke-dasharray:none;stroke-dashoffset:0;stroke-opacity:1" />
    <circle
       style="fill:#ffffff;fill-opacity:1;fill-rule:nonzero;stroke:#ffffff;stroke-width:0.70555556;stroke-linecap:square;stroke-linejoin:miter;stroke-miterlimit:4;stroke-dasharray:none;stroke-dashoffset:0;stroke-opacity:1"
       id="circle1086"
       cx="-140.47054"
       cy="196.68306"
       r="2.1166666" />
    <circle
       style="fill:#ffffff;fill-opacity:1;fill-rule:nonzero;stroke:#ffffff;stroke-width:0.70555556;stroke-linecap:square;stroke-linejoin:miter;stroke-miterlimit:4;stroke-dasharray:none;stroke-dashoffset:0;stroke-opacity:1"
       id="circle1088"
       cx="-140.47054"
       cy="211.49974"
       r="2.1166666" />
    <circle
       style="fill:#ffffff;fill-opacity:1;fill-rule:nonzero;stroke:#ffffff;stroke-width:0.70555556;stroke-linecap:square;stroke-linejoin:miter;stroke-miterlimit:4;stroke-dasharray:none;stroke-dashoffset:0;stroke-opacity:1"
       id="circle1094"
       cx="-125.65386"
       cy="194.56639"
       r="2.1166666" />
    <circle
       style="fill:#ffffff;fill-opacity:1;fill-rule:nonzero;stroke:#ffffff;stroke-width:0.70555556;stroke-linecap:square;stroke-linejoin:miter;stroke-miterlimit:4;stroke-dasharray:none;stroke-dashoffset:0;stroke-opacity:1"
       id="circle1096"
       cx="-123.53719"
       cy="211.49974"
       r="2.1166666" />
    <circle
       r="2.1166666"
       cy="192.44972"
       cx="-106.60386"
       id="circle1102"
       style="fill:#ffffff;fill-opacity:1;fill-rule:nonzero;stroke:#ffffff;stroke-width:0.70555556;stroke-linecap:square;stroke-linejoin:miter;stroke-miterlimit:4;stroke-dasharray:none;stroke-dashoffset:0;stroke-opacity:1" />
    <circle
       r="2.1166666"
       cy="211.49974"
       cx="-106.60387"
       id="circle1104"
       style="fill:#ffffff;fill-opacity:1;fill-rule:nonzero;stroke:#ffffff;stroke-width:0.70555556;stroke-linecap:square;stroke-linejoin:miter;stroke-miterlimit:4;stroke-dasharray:none;stroke-dashoffset:0;stroke-opacity:1" />
  </g>
</svg>
