<?xml version="1.0" encoding="UTF-8" standalone="no"?>
<svg
   xmlns:osb="http://www.openswatchbook.org/uri/2009/osb"
   xmlns:dc="http://purl.org/dc/elements/1.1/"
   xmlns:cc="http://creativecommons.org/ns#"
   xmlns:rdf="http://www.w3.org/1999/02/22-rdf-syntax-ns#"
   xmlns:svg="http://www.w3.org/2000/svg"
   xmlns="http://www.w3.org/2000/svg"
   xmlns:sodipodi="http://sodipodi.sourceforge.net/DTD/sodipodi-0.dtd"
   xmlns:inkscape="http://www.inkscape.org/namespaces/inkscape"
   viewBox="0.0 0.0 348.0 348.0"
   fill="none"
   version="1.1"
   id="svg6"
   sodipodi:docname="Unfair's Revenge.svg"
   inkscape:version="0.92.4 (5da689c313, 2019-01-14)">
  <title
     id="title970">Unfair's Revenge SVG</title>
  <metadata
     id="metadata12">
    <rdf:RDF>
      <cc:Work
         rdf:about="">
        <dc:format>image/svg+xml</dc:format>
        <dc:type
           rdf:resource="http://purl.org/dc/dcmitype/StillImage" />
        <dc:title>Unfair's Revenge SVG</dc:title>
      </cc:Work>
    </rdf:RDF>
  </metadata>
  <defs
     id="defs10">
    <linearGradient
       id="linearGradient2432"
       osb:paint="solid">
      <stop
         style="stop-color:#ff0000;stop-opacity:1;"
         offset="0"
         id="stop2430" />
    </linearGradient>
  </defs>
  <sodipodi:namedview
     pagecolor="#ffffff"
     bordercolor="#666666"
     borderopacity="1"
     objecttolerance="10"
     gridtolerance="10"
     guidetolerance="10"
     inkscape:pageopacity="0"
     inkscape:pageshadow="2"
     inkscape:window-width="1920"
     inkscape:window-height="1057"
     id="namedview8"
     showgrid="false"
     inkscape:pagecheckerboard="false"
     inkscape:snap-bbox="true"
     inkscape:snap-bbox-midpoints="true"
     inkscape:snap-object-midpoints="true"
     inkscape:showpageshadow="false"
     inkscape:snap-grids="true"
     inkscape:snap-page="true"
     inkscape:zoom="2.4453356"
     inkscape:cx="187.05475"
     inkscape:cy="185.95705"
     inkscape:window-x="1272"
     inkscape:window-y="-8"
     inkscape:window-maximized="1"
     inkscape:current-layer="svg6">
    <inkscape:grid
       type="xygrid"
       id="grid867"
       units="px"
       dotted="false" />
  </sodipodi:namedview>
  <path
     d="M5.079 5.776h336.913v337.67H5.08z"
     stroke-width="2"
     stroke="#000"
     id="path2"
     style="stroke:#ff0000;stroke-opacity:1;stroke-width:3.33333333;stroke-miterlimit:4;stroke-dasharray:none;fill-opacity:1;fill:none;fill-rule:evenodd" />
  <path
     d="m 297.28518,33.733133 c 0,-8.376 6.966,-15.165 15.56,-15.165 4.126,0 8.084,1.597 11.001,4.441 2.918,2.844 4.558,6.702 4.558,10.724 0,8.376 -6.966,15.165 -15.56,15.165 -8.593,0 -15.559,-6.79 -15.559,-15.165 z"
     id="path4"
     inkscape:connector-curvature="0"
     style="stroke:#ff0000;stroke-width:2;fill:#555555;stroke-opacity:1;fill-opacity:0.33333334" />
  <path
     style="fill:#585858;fill-opacity:1;fill-rule:nonzero;stroke:#000000;stroke-width:2.41070771;stroke-linecap:square;stroke-linejoin:miter;stroke-miterlimit:4;stroke-dasharray:none;stroke-dashoffset:0;stroke-opacity:1"
     d="M 247.46458,219.66736 A 117.56828,117.56828 0 0 1 129.8963,337.23564 117.56828,117.56828 0 0 1 12.328018,219.66736 117.56828,117.56828 0 0 1 129.8963,102.09908 117.56828,117.56828 0 0 1 247.46458,219.66736 Z"
     id="path822" />
  <path
     style="fill:#0000ff;fill-opacity:1;fill-rule:nonzero;stroke:#000000;stroke-width:2.76968551;stroke-linecap:square;stroke-linejoin:miter;stroke-miterlimit:4;stroke-dasharray:none;stroke-dashoffset:0;stroke-opacity:1"
     d="M 180,308 A 100.75549,100.75549 0 0 1 79.244507,308 L 129.62225,220.74318 Z"
     id="path828" />
  <path
     style="fill:#ff00ff;fill-opacity:1;fill-rule:nonzero;stroke:#000000;stroke-width:2.76968551;stroke-linecap:square;stroke-linejoin:miter;stroke-miterlimit:4;stroke-dasharray:none;stroke-dashoffset:0;stroke-opacity:1"
     d="M 79.244507,308 A 100.75549,100.75549 0 0 1 28.86676,220.74317 l 100.75549,1e-5 z"
     id="path832" />
  <path
     style="fill:#ff0000;fill-opacity:1;fill-rule:nonzero;stroke:#000000;stroke-width:2.76968551;stroke-linecap:square;stroke-linejoin:miter;stroke-miterlimit:4;stroke-dasharray:none;stroke-dashoffset:0;stroke-opacity:1"
     d="m 28.86676,220.74317 a 100.75549,100.75549 0 0 1 50.377746,-87.25681 l 50.377744,87.25682 z"
     id="path834" />
  <path
     transform="scale(-1)"
     style="fill:#ffff00;fill-opacity:1;fill-rule:nonzero;stroke:#000000;stroke-width:2.76968551;stroke-linecap:square;stroke-linejoin:miter;stroke-miterlimit:4;stroke-dasharray:none;stroke-dashoffset:0;stroke-opacity:1"
     d="m -79.244511,-133.48636 a 100.75549,100.75549 0 0 1 -100.755489,0 l 50.37775,-87.25682 z"
     id="path836" />
  <path
     transform="scale(-1)"
     style="fill:#00ff00;fill-opacity:1;fill-rule:nonzero;stroke:#000000;stroke-width:2.76968551;stroke-linecap:square;stroke-linejoin:miter;stroke-miterlimit:4;stroke-dasharray:none;stroke-dashoffset:0;stroke-opacity:1"
     d="m -180,-133.48636 a 100.75549,100.75549 0 0 1 -50.37775,-87.25682 l 100.7555,0 z"
     id="path838" />
  <path
     transform="scale(-1)"
     style="fill:#00ffff;fill-opacity:1;fill-rule:nonzero;stroke:#000000;stroke-width:2.76968551;stroke-linecap:square;stroke-linejoin:miter;stroke-miterlimit:4;stroke-dasharray:none;stroke-dashoffset:0;stroke-opacity:1"
     d="M -230.37775,-220.74318 A 100.75549,100.75549 0 0 1 -180,-308 l 50.37775,87.25682 z"
     id="path840" />
  <path
     style="fill:#ffffff;fill-opacity:1;fill-rule:nonzero;stroke:#000000;stroke-width:2.41070771;stroke-linecap:square;stroke-linejoin:miter;stroke-miterlimit:4;stroke-dasharray:none;stroke-dashoffset:0;stroke-opacity:1"
     d="m 181.69213,220.74318 a 52.069874,52.069874 0 0 1 -52.06988,52.06987 52.069874,52.069874 0 0 1 -52.06987,-52.06987 52.069874,52.069874 0 0 1 52.06987,-52.06987 52.069874,52.069874 0 0 1 52.06988,52.06987 z"
     id="path842" />
  <g
     style="font-style:normal;font-weight:normal;font-size:32px;line-height:1.25;font-family:sans-serif;text-align:center;letter-spacing:0px;word-spacing:0px;text-anchor:middle;fill:#000000;fill-opacity:1;stroke:none"
     id="text849" />
  <path
     style="fill:#000000;fill-opacity:1;fill-rule:nonzero;stroke:#666666;stroke-width:1.33333337;stroke-linecap:square;stroke-linejoin:miter;stroke-miterlimit:4;stroke-dasharray:none;stroke-dashoffset:0;stroke-opacity:1"
     d="M 152.95768,88 A 7.9576783,7.9576783 0 0 1 145,95.957678 7.9576783,7.9576783 0 0 1 137.04232,88 7.9576783,7.9576783 0 0 1 145,80.042322 7.9576783,7.9576783 0 0 1 152.95768,88 Z"
     id="path853" />
  <path
     style="fill:#000011;fill-opacity:1;fill-rule:nonzero;stroke:#ff0000;stroke-width:1.852;stroke-linecap:square;stroke-linejoin:miter;stroke-miterlimit:4;stroke-dasharray:none;stroke-dashoffset:0;stroke-opacity:1"
     d="M 15,18 V 55.037037 L 33.518519,73.555556 H 265 V 36.518519 L 246.48148,18 Z"
     id="path865"
     inkscape:connector-curvature="0"
     sodipodi:nodetypes="ccccccc" />
  <path
     style="fill:#000000;fill-opacity:1;fill-rule:nonzero;stroke:#ff0000;stroke-width:2;stroke-linecap:square;stroke-linejoin:miter;stroke-miterlimit:4;stroke-dasharray:none;stroke-dashoffset:0;stroke-opacity:1"
     d="m 335.00001,115.5 -10,10 h -40 l -10,-10 -10e-6,-25 10,-10 h 40.00001 l 10,10 z"
     id="path869"
     inkscape:connector-curvature="0"
     sodipodi:nodetypes="ccccccccc" />
  <g
     aria-label="#"
     style="font-style:normal;font-weight:normal;font-size:32px;line-height:1.25;font-family:sans-serif;text-align:center;letter-spacing:0px;word-spacing:0px;text-anchor:middle;fill:#ffffff;fill-opacity:1;stroke:none"
     id="text874">
    <path
       d="m 315.05081,99.807587 h -5.20312 l -1.4375,5.875003 h 4.8125 v 2.10937 h -5.35938 l -1.625,6.57813 h -2.01562 l 1.625,-6.57813 h -4.21875 l -1.625,6.57813 h -2.01563 l 1.625,-6.57813 h -4.65625 v -2.10937 h 5.20313 l 1.4375,-5.875003 h -4.8125 v -2.109375 h 5.35937 l 1.64063,-6.59375 h 2.01562 l -1.64062,6.59375 h 4.21875 l 1.64062,-6.59375 h 2.01563 l -1.64063,6.59375 h 4.65625 z m -7.17187,-0.03125 h -4.28125 l -1.46875,5.937503 h 4.28125 z"
       style=""
       id="path868" />
  </g>
  <g
     transform="matrix(1.3689805,0,0,1.3689805,366.99102,-231.8717)"
     id="layer1"
     inkscape:label="Layer 1"
     style="stroke:#ffffff;stroke-opacity:1">
    <path
       inkscape:connector-curvature="0"
       id="path1032"
       d="m -231.48719,217.84972 h 12.7 v -12.7 h -12.7"
       style="fill:none;fill-opacity:1;fill-rule:nonzero;stroke:#ffffff;stroke-width:0.70555556;stroke-linecap:square;stroke-linejoin:miter;stroke-miterlimit:4;stroke-dasharray:none;stroke-dashoffset:0;stroke-opacity:1" />
    <path
       style="fill:none;fill-opacity:1;fill-rule:nonzero;stroke:#ffffff;stroke-width:0.70555556;stroke-linecap:square;stroke-linejoin:miter;stroke-miterlimit:4;stroke-dasharray:none;stroke-dashoffset:0;stroke-opacity:1"
       d="m -214.55386,205.14972 v 12.7 h 12.7 v -12.7"
       id="path1034"
       inkscape:connector-curvature="0" />
    <path
       inkscape:connector-curvature="0"
       id="path1036"
       d="m -184.92053,217.84972 v -12.7 h -12.7 v 12.7"
       style="fill:none;fill-opacity:1;fill-rule:nonzero;stroke:#ffffff;stroke-width:0.70555556;stroke-linecap:square;stroke-linejoin:miter;stroke-miterlimit:4;stroke-dasharray:none;stroke-dashoffset:0;stroke-opacity:1" />
    <path
       style="fill:none;fill-opacity:1;fill-rule:nonzero;stroke:#ffffff;stroke-width:0.70555556;stroke-linecap:square;stroke-linejoin:miter;stroke-miterlimit:4;stroke-dasharray:none;stroke-dashoffset:0;stroke-opacity:1"
       d="m -167.98719,205.14972 h -12.7 v 12.7 h 12.7"
       id="path1038"
       inkscape:connector-curvature="0" />
    <path
       style="fill:none;fill-opacity:1;fill-rule:nonzero;stroke:#ffffff;stroke-width:0.70555556;stroke-linecap:square;stroke-linejoin:miter;stroke-miterlimit:4;stroke-dasharray:none;stroke-dashoffset:0;stroke-opacity:1"
       d="m -231.48719,200.91639 h 12.7 v -12.7 h -12.7 z"
       id="path1040"
       inkscape:connector-curvature="0" />
    <path
       inkscape:connector-curvature="0"
       id="path1042"
       d="m -214.55386,200.91639 6.35,-12.7 6.35,12.7"
       style="fill:none;fill-opacity:1;fill-rule:nonzero;stroke:#ffffff;stroke-width:0.70555556;stroke-linecap:square;stroke-linejoin:miter;stroke-miterlimit:4;stroke-dasharray:none;stroke-dashoffset:0;stroke-opacity:1" />
    <path
       style="fill:none;fill-opacity:1;fill-rule:nonzero;stroke:#ffffff;stroke-width:0.70555556;stroke-linecap:square;stroke-linejoin:miter;stroke-miterlimit:4;stroke-dasharray:none;stroke-dashoffset:0;stroke-opacity:1"
       d="m -197.62053,188.21639 12.7,6.35 -12.7,6.35"
       id="path1044"
       inkscape:connector-curvature="0" />
    <path
       inkscape:connector-curvature="0"
       id="path1046"
       d="m -167.98719,188.21639 -6.35,12.7 -6.35,-12.7"
       style="fill:none;fill-opacity:1;fill-rule:nonzero;stroke:#ffffff;stroke-width:0.70555556;stroke-linecap:square;stroke-linejoin:miter;stroke-miterlimit:4;stroke-dasharray:none;stroke-dashoffset:0;stroke-opacity:1" />
    <path
       style="fill:none;fill-opacity:1;fill-rule:nonzero;stroke:#ffffff;stroke-width:0.70555556;stroke-linecap:square;stroke-linejoin:miter;stroke-miterlimit:4;stroke-dasharray:none;stroke-dashoffset:0;stroke-opacity:1"
       d="m -163.75386,217.84972 h 12.7 v -12.7 h -12.7"
       id="path1058"
       inkscape:connector-curvature="0" />
    <path
       inkscape:connector-curvature="0"
       id="path1060"
       d="m -146.82053,205.14972 v 12.7 h 12.7 v -12.7"
       style="fill:none;fill-opacity:1;fill-rule:nonzero;stroke:#ffffff;stroke-width:0.70555556;stroke-linecap:square;stroke-linejoin:miter;stroke-miterlimit:4;stroke-dasharray:none;stroke-dashoffset:0;stroke-opacity:1" />
    <path
       style="fill:none;fill-opacity:1;fill-rule:nonzero;stroke:#ffffff;stroke-width:0.70555556;stroke-linecap:square;stroke-linejoin:miter;stroke-miterlimit:4;stroke-dasharray:none;stroke-dashoffset:0;stroke-opacity:1"
       d="m -117.18719,217.84972 v -12.7 h -12.7 v 12.7"
       id="path1062"
       inkscape:connector-curvature="0" />
    <path
       inkscape:connector-curvature="0"
       id="path1064"
       d="m -100.25386,205.14972 h -12.7 v 12.7 h 12.7"
       style="fill:none;fill-opacity:1;fill-rule:nonzero;stroke:#ffffff;stroke-width:0.70555556;stroke-linecap:square;stroke-linejoin:miter;stroke-miterlimit:4;stroke-dasharray:none;stroke-dashoffset:0;stroke-opacity:1" />
    <path
       inkscape:connector-curvature="0"
       id="path1066"
       d="m -163.75386,200.91639 h 12.7 v -12.7 h -12.7 z"
       style="fill:none;fill-opacity:1;fill-rule:nonzero;stroke:#ffffff;stroke-width:0.70555556;stroke-linecap:square;stroke-linejoin:miter;stroke-miterlimit:4;stroke-dasharray:none;stroke-dashoffset:0;stroke-opacity:1" />
    <path
       style="fill:none;fill-opacity:1;fill-rule:nonzero;stroke:#ffffff;stroke-width:0.70599997;stroke-linecap:square;stroke-linejoin:miter;stroke-miterlimit:4;stroke-dasharray:none;stroke-dashoffset:0;stroke-opacity:1"
       d="m -146.82053,200.91639 6.35,-12.7 6.35,12.7"
       id="path1068"
       inkscape:connector-curvature="0" />
    <path
       inkscape:connector-curvature="0"
       id="path1070"
       d="m -129.88719,188.21639 12.7,6.35 -12.7,6.35"
       style="fill:none;fill-opacity:1;fill-rule:nonzero;stroke:#ffffff;stroke-width:0.70555556;stroke-linecap:square;stroke-linejoin:miter;stroke-miterlimit:4;stroke-dasharray:none;stroke-dashoffset:0;stroke-opacity:1" />
    <path
       style="fill:none;fill-opacity:1;fill-rule:nonzero;stroke:#ffffff;stroke-width:0.70555556;stroke-linecap:square;stroke-linejoin:miter;stroke-miterlimit:4;stroke-dasharray:none;stroke-dashoffset:0;stroke-opacity:1"
       d="m -100.25386,188.21639 -6.35,12.7 -6.35,-12.7"
       id="path1072"
       inkscape:connector-curvature="0" />
    <path
       style="fill:#ffffff;fill-opacity:1;fill-rule:nonzero;stroke:#ffffff;stroke-width:0.70555556;stroke-linecap:square;stroke-linejoin:miter;stroke-miterlimit:4;stroke-dasharray:none;stroke-dashoffset:0;stroke-opacity:1"
       d="m -155.2872,194.56639 a 2.1166666,2.1166666 0 0 1 -2.11667,2.11667 2.1166666,2.1166666 0 0 1 -2.11667,-2.11667 2.1166666,2.1166666 0 0 1 2.11667,-2.11667 2.1166666,2.1166666 0 0 1 2.11667,2.11667 z"
       id="path1076" />
    <path
       style="fill:#000000;fill-opacity:1;fill-rule:nonzero;stroke:#ffffff;stroke-width:0.70555556;stroke-linecap:square;stroke-linejoin:miter;stroke-miterlimit:4;stroke-dasharray:none;stroke-dashoffset:0;stroke-opacity:1"
       d="m -155.28719,211.49974 a 2.1166666,2.1166666 0 0 1 -2.11666,2.11667 2.1166666,2.1166666 0 0 1 -2.11667,-2.11667 2.1166666,2.1166666 0 0 1 2.11667,-2.11667 2.1166666,2.1166666 0 0 1 2.11666,2.11667 z"
       id="circle1078" />
    <path
       style="fill:#ffffff;fill-opacity:1;fill-rule:nonzero;stroke:#ffffff;stroke-width:0.70555556;stroke-linecap:square;stroke-linejoin:miter;stroke-miterlimit:4;stroke-dasharray:none;stroke-dashoffset:0;stroke-opacity:1"
       d="m -155.28719,211.49974 a 2.1166666,2.1166666 0 0 1 -2.11666,2.11667 2.1166666,2.1166666 0 0 1 -2.11667,-2.11667 2.1166666,2.1166666 0 0 1 2.11667,-2.11667 2.1166666,2.1166666 0 0 1 2.11666,2.11667 z"
       id="circle1080" />
    <path
       style="fill:#ffffff;fill-opacity:1;fill-rule:nonzero;stroke:#ffffff;stroke-width:0.70555556;stroke-linecap:square;stroke-linejoin:miter;stroke-miterlimit:4;stroke-dasharray:none;stroke-dashoffset:0;stroke-opacity:1"
       d="m -138.35387,196.68306 a 2.1166666,2.1166666 0 0 1 -2.11667,2.11667 2.1166666,2.1166666 0 0 1 -2.11666,-2.11667 2.1166666,2.1166666 0 0 1 2.11666,-2.11667 2.1166666,2.1166666 0 0 1 2.11667,2.11667 z"
       id="circle1086" />
    <path
       style="fill:#ffffff;fill-opacity:1;fill-rule:nonzero;stroke:#ffffff;stroke-width:0.70555556;stroke-linecap:square;stroke-linejoin:miter;stroke-miterlimit:4;stroke-dasharray:none;stroke-dashoffset:0;stroke-opacity:1"
       d="m -138.35387,211.49974 a 2.1166666,2.1166666 0 0 1 -2.11667,2.11667 2.1166666,2.1166666 0 0 1 -2.11666,-2.11667 2.1166666,2.1166666 0 0 1 2.11666,-2.11667 2.1166666,2.1166666 0 0 1 2.11667,2.11667 z"
       id="circle1088" />
    <path
       style="fill:#ffffff;fill-opacity:1;fill-rule:nonzero;stroke:#ffffff;stroke-width:0.70555556;stroke-linecap:square;stroke-linejoin:miter;stroke-miterlimit:4;stroke-dasharray:none;stroke-dashoffset:0;stroke-opacity:1"
       d="m -123.5372,194.56639 a 2.1166666,2.1166666 0 0 1 -2.11666,2.11667 2.1166666,2.1166666 0 0 1 -2.11667,-2.11667 2.1166666,2.1166666 0 0 1 2.11667,-2.11667 2.1166666,2.1166666 0 0 1 2.11666,2.11667 z"
       id="circle1094" />
    <path
       style="fill:#ffffff;fill-opacity:1;fill-rule:nonzero;stroke:#ffffff;stroke-width:0.70555556;stroke-linecap:square;stroke-linejoin:miter;stroke-miterlimit:4;stroke-dasharray:none;stroke-dashoffset:0;stroke-opacity:1"
       d="m -121.42053,211.49974 a 2.1166666,2.1166666 0 0 1 -2.11666,2.11667 2.1166666,2.1166666 0 0 1 -2.11667,-2.11667 2.1166666,2.1166666 0 0 1 2.11667,-2.11667 2.1166666,2.1166666 0 0 1 2.11666,2.11667 z"
       id="circle1096" />
    <path
       style="fill:#ffffff;fill-opacity:1;fill-rule:nonzero;stroke:#ffffff;stroke-width:0.70555556;stroke-linecap:square;stroke-linejoin:miter;stroke-miterlimit:4;stroke-dasharray:none;stroke-dashoffset:0;stroke-opacity:1"
       d="m -104.48719,192.44972 a 2.1166666,2.1166666 0 0 1 -2.11667,2.11667 2.1166666,2.1166666 0 0 1 -2.11667,-2.11667 2.1166666,2.1166666 0 0 1 2.11667,-2.11666 2.1166666,2.1166666 0 0 1 2.11667,2.11666 z"
       id="circle1102" />
    <path
       style="fill:#ffffff;fill-opacity:1;fill-rule:nonzero;stroke:#ffffff;stroke-width:0.70555556;stroke-linecap:square;stroke-linejoin:miter;stroke-miterlimit:4;stroke-dasharray:none;stroke-dashoffset:0;stroke-opacity:1"
       d="m -104.4872,211.49974 a 2.1166666,2.1166666 0 0 1 -2.11667,2.11667 2.1166666,2.1166666 0 0 1 -2.11666,-2.11667 2.1166666,2.1166666 0 0 1 2.11666,-2.11667 2.1166666,2.1166666 0 0 1 2.11667,2.11667 z"
       id="circle1104" />
  </g>
</svg>
